<svg width="96" height="96" viewBox="0 0 96 96" fill="none" xmlns="http://www.w3.org/2000/svg">
<g clip-path="url(#clip0_29_75)">
<path d="M28.688 82.6201C25.032 79.7401 21.128 76.9801 18.464 73.1001C12.856 66.2521 8.53605 58.3241 5.58405 49.9921C3.80005 44.5721 3.18405 38.7601 0.888048 33.5521C-1.51995 29.7761 1.30005 25.6401 5.44005 24.4361C7.28005 24.0841 10.528 22.3441 6.61205 23.5881C3.10005 26.1641 2.76005 21.2481 6.36005 20.9401C8.82005 20.6121 9.72005 18.6001 8.88005 16.7921C6.24405 15.0721 15.28 13.1801 10.732 10.6161C6.00405 5.50407 17.36 4.52007 14.56 10.3201C13.892 14.7801 22.496 9.50407 20.5 14.6521C22.528 17.1281 28.1 15.2161 27.96 18.6881C30.92 18.8881 31.932 21.3761 34.708 21.5681C37.588 22.8681 42.8 23.8881 43.776 27.1321C40.924 29.3921 34.316 22.4681 34 28.7201C34.86 37.9601 34.64 47.4761 38.02 56.2721C39.62 61.6001 43.496 65.7921 46.996 69.9441C50.344 74.0081 54.88 76.8641 59.504 79.2761C63.56 81.1881 67.932 82.4561 72.356 83.2521C74.148 81.8801 77.316 76.7841 80.108 78.9321C80.24 81.3481 74.556 83.9841 79.84 83.7161C82.944 82.7801 85.096 86.1161 87.652 83.1081C90.004 85.8961 97.436 81.3241 95.76 87.0281C93.496 88.4841 90.192 87.6041 87.924 89.6121C84.184 87.7441 81.204 91.2841 77.064 90.8361C72.464 91.6601 67.788 91.9961 63.128 92.0001C55.48 91.3961 47.668 91.1401 40.392 88.4801C36.292 87.2881 32.296 84.9521 28.692 82.6201H28.688ZM35.148 85.4201C39.148 87.1481 43.064 88.9721 47.448 89.5241C54.408 90.4881 61.596 91.9801 68.58 90.6201C65.42 89.1921 62.148 91.1801 59 89.6001C55.224 90.4121 51.172 89.3921 47.332 88.8921C42.964 86.9481 38.252 85.6121 34.164 83.0841C29.056 81.2201 36.804 85.4761 38.188 85.8241C41.38 87.6361 34.676 84.8921 33.728 84.1401C31.056 82.6401 30.712 82.9521 33.464 84.4761C34.02 84.8001 34.568 85.1401 35.144 85.4161L35.148 85.4201ZM27.532 80.0361C31.412 81.4721 27.516 77.3081 25.736 77.5481C24.948 76.1841 22.728 75.3201 24.296 74.5881C21.476 75.5641 21.344 70.8681 20.016 71.5361C17.036 70.5961 18.856 67.2601 15.308 65.2161C14.984 63.0561 11.78 61.1841 10.756 57.9281C10.304 56.2641 7.13605 51.4761 9.08405 55.9281C10.74 60.2161 13.656 63.8881 16.084 67.5561C17.964 71.0481 20.192 74.7001 23.624 76.8761C24.784 77.9881 25.896 79.6881 27.532 80.0361ZM16.36 67.7681C16.492 67.1841 17.068 69.0361 16.36 67.7681V67.7681ZM32.176 81.7561C33.036 81.3721 30.94 81.2761 32.176 81.7561V81.7561ZM34.28 82.5241C34.064 81.4641 33.32 83.1161 34.28 82.5241V82.5241ZM36.92 83.6241C38.172 82.4281 34.984 82.8721 36.92 83.6241V83.6241ZM41.432 86.1441C42.196 85.0161 38.992 85.7161 41.432 86.1441V86.1441ZM32.76 80.0921C34.708 78.8321 30.24 80.0761 32.76 80.0921V80.0921ZM34.736 81.0761C34.68 80.4121 34.032 81.3761 34.736 81.0761V81.0761ZM44.616 87.2441C46.208 88.2441 53.896 89.4441 49.08 87.6561C48.276 87.8241 40.156 85.3601 44.616 87.2441ZM28.932 75.0281C28.776 74.3601 26.468 74.2881 28.932 75.0281V75.0281ZM33.532 77.7081C34.732 76.8721 31.048 77.0681 33.532 77.7081V77.7081ZM37.4 80.0801C39.12 79.4321 34.612 79.4281 37.4 80.0801V80.0801ZM27.06 72.9881C28.924 74.4201 34.58 73.1721 29.916 72.1361C27.796 71.0041 23.008 70.2321 26.268 72.8161L27.06 72.9881ZM40.02 80.9001C40.796 79.5801 36.764 80.1441 40.02 80.9001V80.9001ZM36.084 77.7681C40.644 79.0601 32.252 74.8881 34.96 77.2961L35.56 77.5681L36.08 77.7681H36.084ZM43.98 82.3321C48.296 82.3721 40.08 81.7401 43.98 82.3321V82.3321ZM25.4 70.4921C25.232 69.6881 24.336 70.5601 25.4 70.4921V70.4921ZM51.28 86.4281C51.396 84.9761 49.872 87.5081 51.28 86.4281V86.4281ZM32.764 75.0041C32.504 74.2401 31.416 74.9721 32.764 75.0041V75.0041ZM25.808 69.9881C28.288 69.8401 22.416 68.8961 25.808 69.9881V69.9881ZM17.568 64.6601C17.26 63.4721 14.872 62.5241 17.568 64.6601V64.6601ZM39.2 78.4001C38.744 77.8801 38.984 78.5121 39.2 78.4001V78.4001ZM52.664 86.6601C52.624 85.8721 51.932 86.9601 52.664 86.6601V86.6601ZM38.008 77.1681C38.248 76.1481 35.892 76.8601 38.008 77.1681V77.1681ZM27.98 70.8001C29.82 70.6041 25.024 69.5561 27.98 70.8001V70.8001ZM44.948 81.3481C47.82 80.2081 42.148 80.7881 44.948 81.3481V81.3481ZM36.12 75.3601C39.432 75.7841 32.18 73.1081 35.396 75.1201L36.12 75.3601ZM47.628 82.4321C50.72 80.5841 49.7 86.7601 52.872 82.9521C56 80.6721 50.172 85.7801 54.028 83.3641C56.816 81.4961 60.936 84.2441 63.536 85.1441C65.408 85.0521 67.228 86.7641 69.148 85.7241C72.84 84.7241 61.924 84.2441 64.788 82.4841C61.408 83.4641 58.908 81.3081 57.248 79.1441C53.456 78.2681 49.072 76.3321 47.18 72.9761C46.412 71.7161 48.296 73.1521 46.516 71.0961C44.232 69.0641 43.092 66.7561 41.556 64.2881C39.728 63.3121 39.516 60.4361 39.328 64.1921C39.344 61.8201 37.116 60.2241 36.572 60.8881C36.564 58.6041 38.956 59.7481 37.28 58.0601C36.92 55.6921 35.732 53.2241 35.376 50.5521C34.824 49.2641 35.296 46.5081 33.484 49.4241C32.824 52.5041 33.264 45.6361 34.292 47.9041C35.64 45.5881 33.812 45.8641 33.732 46.1841C34.612 44.2321 34.292 41.4641 33.504 42.5201C33.972 40.4521 34.244 34.9121 32.804 35.8961C33.676 33.7361 34.46 26.0041 30.668 28.9521C29.132 28.9721 26.476 29.5121 25.216 30.1361C29.16 32.3081 24.82 30.9201 23.216 30.5761C23.008 32.5841 21.416 31.7161 19.432 31.7361C22.604 32.1281 17.888 34.9761 16.068 33.8721C13.708 35.0001 18.108 37.8201 16.116 38.6921C16.36 40.0041 12.496 38.2161 12.796 41.2521C10.504 40.2881 12.484 44.8521 13.632 43.3081C17.532 44.3641 16.376 46.7721 16.476 49.0561C15.84 50.3881 13.336 45.9241 15.916 46.1321C13.884 42.8241 13.668 44.9361 11.976 46.4721C11.58 46.5841 16.292 48.6601 13.336 49.6841C15.936 50.0841 16.008 52.3641 16.536 53.8041C18.1 55.4321 17.78 52.0041 19.652 53.9641C18.468 52.2201 13.384 49.0521 17.476 50.0681C17.456 48.3121 16.736 46.8961 17.992 46.9321C19.232 44.6841 16.692 52.4801 19.492 49.6201C20.264 49.2801 20.456 47.3681 21.852 49.8001C23.872 51.7921 22.58 53.2321 19.728 51.4121C20.236 53.1441 23.544 53.7601 22.924 56.4721C23.584 58.8521 24.504 57.9761 25.308 57.8401C25.94 60.1521 26.296 58.4521 26.328 57.3481C29.212 57.9681 28.536 59.6721 29.44 60.8681C31.428 61.7641 26.592 54.7801 30.008 58.7641C33.6 62.0081 31.356 63.3641 28.128 62.8441C30.168 62.6801 30.828 65.6041 33.38 65.5001C35.708 66.6081 37.284 70.8601 33.272 69.0881C31.88 67.8361 26.956 66.2881 30.98 68.6721C34.696 70.3921 37.644 71.4241 41.228 73.5801C43.788 75.4121 44.9 77.5081 45.868 77.9241C43.716 78.9521 39.376 77.1001 42.6 76.5321C40.588 76.1681 38.328 75.1521 40.252 77.6521C41.892 79.0241 46.052 78.8761 46.8 79.0321C46.164 80.4241 45.08 80.5361 46.824 80.6441C44.88 81.6841 47.448 81.8441 47.628 82.4361V82.4321ZM43.652 71.2001C42.468 69.9601 42.16 67.6401 43.44 69.6601C44.096 69.9241 45.54 73.4481 43.652 71.2001ZM56.604 79.4281C57.344 79.3841 56.628 79.9881 56.604 79.4281V79.4281ZM41.78 68.1641C41.736 66.2921 42.208 69.6081 41.78 68.1641V68.1641ZM40.492 66.4321C39.004 63.5561 42.372 67.2481 40.492 66.4321V66.4321ZM24.892 55.6641C25.764 55.4281 25.32 57.1601 24.892 55.6641V55.6641ZM37.308 62.3921C37.844 60.3761 37.94 64.0881 37.308 62.3921V62.3921ZM28.536 56.2921C27.916 55.1801 29.828 57.3361 28.536 56.2921V56.2921ZM36.064 58.7081C34.656 55.5481 37.064 56.9801 36.376 59.2281L36.064 58.7081ZM23.08 50.0481C22.448 49.0081 21.408 45.9681 21.744 45.0401C22.048 46.5521 24.96 51.5481 23.172 47.1121C21.196 43.3921 25.532 48.3201 25.98 49.2481C26.184 50.1681 24.76 48.9961 25.724 51.1601C23.964 48.6921 24.684 52.5201 23.08 50.0481ZM19.068 47.2841C19.232 44.8721 19.988 48.9361 19.068 47.2841V47.2841ZM20.872 47.9041C21.732 46.0841 22.332 50.4401 20.872 47.9041V47.9041ZM16.532 44.5441C15.036 43.0641 13.956 41.6921 16.6 43.6241C17.62 43.6641 14.336 40.5121 16.844 42.6241C19.484 43.1041 18.148 46.9521 16.532 44.5441ZM18.812 44.4841C19.68 43.6241 19.272 45.3321 18.812 44.4841V44.4841ZM20.212 44.9361C18.9 42.4681 21.812 45.9681 20.212 44.9361V44.9361ZM17.424 42.2681C13.08 38.4041 22.884 44.2921 18.132 42.9881L17.424 42.2681ZM29.868 49.5001C27.988 48.3721 29.372 41.5641 30.012 46.2201C31.84 45.6281 29.912 48.6241 31.272 48.5961C31.06 50.4881 30.448 51.1681 29.872 49.5001H29.868ZM34.468 52.2201C34.656 50.1681 34.86 53.6201 34.468 52.2201V52.2201ZM33.668 51.4281C33.88 50.5521 33.692 52.4601 33.668 51.4281V51.4281ZM18.28 41.0001C15.492 37.1481 26.388 44.8921 20.068 41.9761C19.408 41.8041 18.612 41.7401 18.28 41.0001ZM27.144 45.7001C26.88 42.4601 27.732 46.2361 27.144 45.7001V45.7001ZM33.872 50.0161C34.392 48.1681 33.912 51.2361 33.872 50.0161V50.0161ZM18.704 39.5281C20.364 39.1761 25.576 42.4441 20.788 40.4641C20.256 39.8721 19.12 40.1441 18.704 39.5281ZM32.944 46.6281C33.12 43.3121 33.936 44.6481 32.952 47.1001L32.944 46.6281ZM19.94 38.3761C20.616 37.3841 18.144 33.8961 20.296 37.1241C21.224 37.8641 22.984 38.3641 21.428 38.6721C23.872 40.8281 20.832 39.2561 19.94 38.3761V38.3761ZM32.24 45.5921C32.708 41.8161 32.652 47.8041 32.24 45.5921V45.5921ZM18.528 34.8881C19.044 34.6681 18.8 35.5761 18.528 34.8881V34.8881ZM21.736 36.8001C22.56 35.0641 23.256 38.7321 21.736 36.8001V36.8001ZM30.788 41.8361C30.78 41.1681 30.96 42.8041 30.788 41.8361V41.8361ZM30.264 40.6761C29.008 37.5721 31.432 42.3161 30.264 40.6761V40.6761ZM29.492 38.6401C29.28 37.3601 30.212 40.2521 29.492 38.6401V38.6401ZM30.748 36.6001C29.884 35.0801 31.836 29.9041 32.052 33.1161C31.144 35.6161 31.792 37.0161 32.424 33.6601C33.596 31.0201 32.172 38.8721 30.744 36.6001H30.748ZM32.036 28.9041C32.412 28.4441 32.12 29.4601 32.036 28.9041V28.9041ZM29.884 71.3561C29.372 70.9121 29.948 71.6401 29.884 71.3561V71.3561ZM34.324 73.6001C36.788 74.2361 36.776 73.2161 34.544 72.9161C33.344 71.7961 29.56 70.6161 32.948 72.7761C33.172 73.3441 33.884 73.3321 34.32 73.6001H34.324ZM25.556 67.7801C26.916 68.7921 30.676 70.6561 27.492 68.1641C28.568 66.9161 25.436 66.2521 26.476 65.4201C23.836 63.8041 24.396 63.9481 26.244 63.9961C23.068 62.5801 26.7 62.6841 26.528 61.9561C25.304 61.7161 20.448 59.8001 23.308 62.1161C20.404 60.6361 22.616 62.6681 21.74 62.4521C18.768 61.6441 24.38 64.7121 21.268 63.9521C22.968 65.3001 25.852 67.4081 21.988 65.3801C21.476 66.1121 24.752 67.2201 25.556 67.7801ZM30.196 70.4481C35.84 72.2641 27.432 68.2241 30.196 70.4481V70.4481ZM53.956 84.8401C54.036 83.7201 53.188 85.8001 53.956 84.8401V84.8401ZM56.404 85.8681C57.704 84.6081 56.456 87.8801 58.56 85.5601C58.584 83.9001 58.496 82.9201 56.14 84.9361C55.492 85.2961 55.204 86.8281 56.404 85.8681ZM17.632 61.5201C17.232 59.9481 14.832 59.9601 17.632 61.5201V61.5201ZM20.24 63.2321C19.272 61.6241 16.784 61.7761 20.24 63.2321V63.2321ZM35.08 72.1801C36.528 73.4641 41.732 73.1241 36.84 72.3401C36.112 71.2641 32.236 71.5241 35.08 72.1801ZM55.472 84.7761C57.704 82.9041 53.312 85.6081 55.472 84.7761V84.7761ZM60.112 87.9601C60.124 87.3601 59.152 88.2241 60.112 87.9601V87.9601ZM60.116 87.1201C62.584 84.5041 57.724 87.2761 60.116 87.1201V87.1201ZM11.22 56.1521C9.11605 53.1521 9.91205 51.8001 7.88005 49.3521C7.49605 47.4721 4.40005 43.2201 6.28005 47.7281C8.00005 50.3641 8.51205 54.4441 11.22 56.1521ZM59.34 86.2881C63.884 83.3521 57.48 85.0081 59.34 86.2881V86.2881ZM62.808 87.6481C65.088 85.6961 61.368 87.2401 62.808 87.6481V87.6481ZM16.86 58.2001C17.512 57.2321 15.18 58.0761 16.86 58.2001V58.2001ZM62.084 86.7161C64.288 85.2961 61.58 85.5161 61.684 86.8441L62.084 86.7161ZM32.2 67.8801C32.12 66.9201 31.036 67.9601 32.2 67.8801V67.8801ZM34.044 68.9441C33.46 67.7561 33.144 69.1321 34.044 68.9441V68.9441ZM65.62 87.6801C68.44 85.6401 63.908 87.2881 65.028 88.0641L65.62 87.6801ZM64.54 87.1601C66.836 85.2321 62.112 88.0121 64.54 87.1601V87.1601ZM70.06 90.8321C71.604 89.8001 68.184 90.5001 70.06 90.8321V90.8321ZM18.276 57.5041C20.344 57.9681 26.54 62.6001 22.884 57.8241C21.012 57.2721 22.136 52.6921 20.224 53.5041C21.504 55.6441 21.28 56.5561 18.588 55.2081C15.204 53.5561 16.688 56.0241 17.348 56.7041C16.448 56.9121 18.54 57.4881 18.276 57.5041V57.5041ZM8.85205 50.0641C9.22005 48.5321 5.44005 41.6361 7.06805 46.6081C7.65205 47.6481 7.59205 49.6241 8.85205 50.0641ZM26.148 60.7281C25.084 59.8361 26.096 60.6001 26.148 60.7281V60.7281ZM28.772 61.3361C28.772 59.7161 25.872 60.6801 28.772 61.3361V61.3361ZM51.5 75.6681C51.068 74.5561 49.788 75.6441 51.5 75.6681V75.6681ZM52.592 76.4641C52.432 75.8441 51.964 76.5841 52.592 76.4641V76.4641ZM61.604 82.1401C62.468 81.5001 60.524 82.0601 61.604 82.1401V82.1401ZM13.56 51.2641C16.04 50.3041 10.904 50.5801 13.56 51.2641V51.2641ZM49.5 73.9081C49.472 72.3041 47.92 74.3081 49.5 73.9081V73.9081ZM12.58 48.9841C14.172 48.4441 11.108 48.6281 12.58 48.9841V48.9841ZM17.2 51.2241C17.172 50.6921 16.712 51.4241 17.2 51.2241V51.2241ZM73.56 85.7841C75.612 85.3681 80.276 86.8241 81.028 85.2401C78.544 85.1801 72.428 83.4881 72.14 85.6441L72.684 85.7321L73.564 85.7841H73.56ZM18.672 51.5921C18.708 49.9641 17.404 51.5321 18.672 51.5921V51.5921ZM6.52005 43.1601C5.96805 40.0601 4.42005 42.6881 6.52005 43.1601V43.1601ZM9.41605 43.8881C9.45205 42.8921 6.76405 42.9921 9.41605 43.8881V43.8881ZM11.072 44.7001C10.592 44.3121 10.696 45.1881 11.072 44.7001V44.7001ZM21.492 51.3801C21.98 50.9321 20.332 51.0481 21.492 51.3801V51.3801ZM9.97205 42.8681C9.69205 40.5281 6.61205 42.5161 9.97205 42.8681V42.8681ZM4.02805 39.0121C3.94805 37.9321 3.45205 39.4201 4.02805 39.0121V39.0121ZM4.91205 38.3441C4.76805 37.0641 4.15205 38.5041 4.91205 38.3441V38.3441ZM9.79205 41.2601C11.86 40.4481 6.03205 39.5801 9.37205 41.1041L9.79205 41.2601ZM75.128 81.6161C76.448 80.4041 73.448 81.2401 75.128 81.6161V81.6161ZM83.024 85.7081C83.552 84.1401 81.688 85.9121 83.024 85.7081V85.7081ZM10.292 38.7041C10.512 37.1881 8.65605 39.0041 10.292 38.7041V38.7041ZM3.34805 34.0521C2.97605 31.9121 3.02805 28.1561 6.59605 29.4281C1.83205 30.3721 9.89205 35.3481 8.87605 31.4201C10.876 31.5161 12.796 30.2361 11.74 32.1801C15.688 31.7441 18.424 28.3241 22.236 28.8001C25.204 28.4081 28.452 28.1121 31.652 26.9161C34.284 26.7241 36.816 23.8921 35.372 22.2161C31.788 21.9121 28.032 22.3601 24.064 23.1481C19.672 24.0601 15.68 25.7961 11.244 26.5441C6.92405 27.1241 12.112 28.1441 10.876 28.3681C8.62005 29.1521 13.564 29.6801 10.584 30.5041C8.74405 30.1521 6.82405 29.5201 7.61205 27.5841C3.47205 28.1161 -0.167953 29.8361 3.10405 34.0481H3.34805V34.0521ZM13.324 28.9721C14.296 25.3961 18.524 31.9121 14.916 29.4441C14.484 29.1241 13.776 28.8601 13.324 28.9681V28.9721ZM13.512 27.2361C14.912 26.1961 14.256 27.8201 13.512 27.2361V27.2361ZM15.292 27.2681C15.42 25.6241 19.364 28.1401 15.944 27.8601L15.292 27.2681ZM17.724 26.2881C18.612 25.2481 17.98 27.2121 17.724 26.2881V26.2881ZM18.348 25.8721C19.828 24.0961 26.728 24.7401 21.676 25.7001C20.324 24.6801 19.284 26.3001 18.348 25.8721ZM27.352 24.4841C27.128 19.6281 31.824 26.2121 27.352 24.4841V24.4841ZM29.908 24.4681C30.84 22.0201 33.532 23.4881 30.34 23.9761C30.408 24.2361 30.244 25.2401 29.908 24.4681ZM9.28805 37.4481C12.076 35.7401 6.32405 35.9681 9.28805 37.4481V37.4481ZM11.348 38.0241C12.328 36.9841 9.22405 37.6001 11.348 38.0241V38.0241ZM5.26805 33.7041C6.86405 32.4841 3.38405 33.2401 5.26805 33.7041V33.7041ZM87.68 85.2641C87.728 83.8441 86.464 85.9041 87.68 85.2641V85.2641ZM79.308 79.5481C79.548 77.9121 78.228 79.6921 79.308 79.5481V79.5481ZM89.988 85.8161C92.216 85.8161 96.74 85.1241 91.888 85.1241C91.128 85.2441 87.452 85.2201 89.984 85.8161H89.988ZM13.16 37.0161C14.964 36.8961 15.984 35.0281 12.812 35.1361C7.89205 34.6281 17.148 36.8161 12.18 36.1921C11.512 36.6321 13.124 37.1401 13.16 37.0201V37.0161ZM14.752 37.8241C14.56 36.6641 14.192 38.4401 14.752 37.8241V37.8241ZM16.632 32.7961C17.42 31.8241 15.552 32.5361 16.632 32.7961V32.7961ZM10.632 22.7641C13.856 21.6681 18.26 20.4401 19.78 23.3041C18.232 21.4401 19.156 19.6081 20.62 22.3321C22.684 25.0881 23.72 21.0801 22.372 20.1521C23.904 22.0561 25.648 22.9561 23.4 20.2721C25.84 17.3361 18.508 20.6601 16.84 20.6241C16.04 20.9841 8.55605 22.5321 10.636 22.7641H10.632ZM12.52 19.1521C14.36 17.7641 18.872 19.9761 15.976 17.7721C15.696 17.5241 9.63205 19.4441 12.52 19.1521ZM19.216 19.4281C21.368 19.4801 18.292 16.5401 20.852 17.8721C20.432 16.4961 17.868 16.2401 16.616 15.6921C15.908 16.9481 18.056 19.4441 19.216 19.4281ZM13.696 13.3481C14.44 12.3401 12.392 13.8601 13.696 13.3481V13.3481ZM16.432 14.0041C19.896 13.5441 15.552 12.5121 15.736 13.9641L16.432 14.0041ZM11.324 10.0041C8.88405 6.82007 15.908 10.5401 13.432 7.20407C11.344 5.54407 9.34005 9.07607 11.324 10.0041ZM42.624 26.8641C43.744 24.8801 38.004 24.1921 41.872 26.1641C42.228 26.2841 42.148 27.0041 42.624 26.8641Z" fill="black"/>
</g>
<defs>
<clipPath id="clip0_29_75">
<rect width="96" height="96" fill="white"/>
</clipPath>
</defs>
</svg>
