<svg width="96" height="96" viewBox="0 0 96 96" fill="none" xmlns="http://www.w3.org/2000/svg">
<g clip-path="url(#clip0_29_61)">
<path d="M94.1898 43.7226L52.2748 1.81067C49.8626 -0.603557 45.9474 -0.603557 43.5321 1.81067L34.8285 10.5143L45.8695 21.5553C48.4354 20.6884 51.3773 21.2698 53.4229 23.3154C55.4779 25.3736 56.0552 28.3408 55.1672 30.9152L65.8079 41.5559C68.3822 40.669 71.3526 41.243 73.4087 43.3023C76.2822 46.1747 76.2822 50.8304 73.4087 53.7049C70.5342 56.5795 65.8785 56.5795 63.0029 53.7049C60.8415 51.5414 60.3074 48.3667 61.4018 45.7039L51.4784 35.7805L51.4774 61.8946C52.1778 62.2422 52.8393 62.7046 53.4229 63.286C56.2964 66.1584 56.2964 70.8141 53.4229 73.6908C50.5484 76.5643 45.8905 76.5643 43.0202 73.6908C40.1467 70.8141 40.1467 66.1584 43.0202 63.286C43.7302 62.5771 44.5518 62.041 45.4281 61.6807V35.3233C44.5518 34.9652 43.7312 34.4322 43.0202 33.7181C40.843 31.544 40.3195 28.3493 41.435 25.6759L30.552 14.7908L1.81195 43.5288C-0.603332 45.9451 -0.603332 49.8603 1.81195 52.2745L43.727 94.1875C46.1402 96.6017 50.0543 96.6017 52.4707 94.1875L94.1898 52.4694C96.604 50.0541 96.604 46.1368 94.1898 43.7226" fill="#DE4C36"/>
</g>
<defs>
<clipPath id="clip0_29_61">
<rect width="96" height="96" fill="white"/>
</clipPath>
</defs>
</svg>
