<svg width="83" height="96" viewBox="0 0 83 96" fill="none" xmlns="http://www.w3.org/2000/svg">
<path d="M29.6536 27.1936L29.918 33.2748L25.6876 41.2068L19.0776 54.1624L17.7556 65.0028L22.5148 80.338L33.3552 86.4192H49.748L65.0832 74.7856L71.9576 56.542L56.0936 37.2408L51.5988 26.4004L29.6536 27.1936Z" fill="#ECEFF1"/>
<path d="M67.1986 42.2644C62.9682 36.1832 59.531 32.4816 57.6802 24.814C55.8294 17.1464 58.209 19.2616 56.6226 12.6516C55.8294 9.21437 54.5074 6.83477 53.1854 4.98397C51.599 3.13317 49.7482 2.07557 48.6906 1.81117C46.311 0.489172 40.7586 -1.62603 33.8842 2.07557C26.7454 5.77717 27.5386 13.7092 28.8606 29.8376C28.8606 30.8952 28.5962 32.2172 28.0674 33.2748C27.0098 35.6544 25.159 37.7696 23.5726 39.6204C21.7218 42.2644 19.871 44.9084 18.549 47.8168C15.3762 53.898 12.4678 61.5656 13.261 64.474C14.583 64.2096 31.2402 89.592 31.2402 90.1208C32.2978 89.8564 36.7926 89.8564 40.7586 89.8564C46.311 89.592 49.4838 89.3276 53.9786 90.3852C53.9786 89.592 53.7142 88.7988 53.7142 88.0056C53.7142 86.4192 53.9786 85.0972 54.243 83.2464C54.5074 81.9244 54.7718 80.6024 55.0362 79.016C52.3922 81.3956 47.633 84.0396 43.1382 84.8328C39.1722 85.626 32.5622 84.304 29.3894 80.338C29.6538 80.338 30.1826 80.338 30.447 80.0736C31.2402 79.8092 32.0334 79.5448 32.2978 79.016C33.091 77.694 32.5622 76.372 32.0334 75.5788C31.5046 74.7856 27.5386 71.8772 25.6878 70.2908C23.837 68.7044 22.7794 67.9112 21.7218 66.8536C21.7218 66.8536 20.1354 65.2672 19.6066 64.7384C19.0778 64.2096 18.8134 63.6808 18.549 63.4164C18.0202 62.0944 17.7558 60.508 18.0202 58.3928C18.2846 55.4844 19.3422 53.1048 20.6642 50.4608C21.193 49.4032 22.515 47.288 22.515 47.288C22.515 47.288 18.0202 58.3928 20.3998 61.83C20.3998 61.83 20.6642 58.3928 21.7218 54.9556C22.515 52.576 23.837 49.1388 25.4234 47.288C27.0098 45.4372 30.9758 38.5628 31.2402 34.3324C31.2402 32.4816 31.5046 30.6308 31.5046 29.3088C30.447 28.2512 48.955 25.6072 50.0126 28.5156C50.277 29.5732 53.9786 39.0916 56.0938 44.1152C57.1514 46.4948 58.4734 48.61 59.2666 51.254C60.0598 54.1624 60.5886 58.1284 60.5886 62.0944C60.5886 62.8876 60.5886 64.2096 60.3242 65.5316C60.853 65.5316 71.1646 54.4268 59.0022 45.1728C59.0022 45.1728 66.4054 48.61 66.6698 55.4844C66.9342 61.0368 64.5546 65.5316 64.0258 66.3248C64.2902 66.3248 69.5782 68.7044 69.8426 68.7044C70.9002 68.7044 73.0154 67.9112 73.0154 67.9112C73.2798 67.118 74.073 65.0028 74.073 64.2096C75.9238 58.1284 71.429 48.3456 67.1986 42.2644V42.2644Z" fill="#263238"/>
<path d="M33.6198 24.814C35.5181 24.814 37.057 22.4465 37.057 19.526C37.057 16.6056 35.5181 14.238 33.6198 14.238C31.7215 14.238 30.1826 16.6056 30.1826 19.526C30.1826 22.4465 31.7215 24.814 33.6198 24.814Z" fill="#ECEFF1"/>
<path d="M45.5178 25.3428C48.0002 25.3428 50.0125 22.6202 50.0125 19.2616C50.0125 15.9031 48.0002 13.1804 45.5178 13.1804C43.0353 13.1804 41.0229 15.9031 41.0229 19.2616C41.0229 22.6202 43.0353 25.3428 45.5178 25.3428Z" fill="#ECEFF1"/>
<path d="M35.5399 19.8878C35.3201 18.1494 34.3199 16.844 33.3058 16.9722C32.2917 17.1004 31.6478 18.6136 31.8675 20.352C32.0872 22.0905 33.0875 23.3958 34.1016 23.2677C35.1157 23.1395 35.7596 21.6263 35.5399 19.8878Z" fill="#212121"/>
<path d="M45.2534 23.7565C46.7136 23.7565 47.8974 22.2176 47.8974 20.3193C47.8974 18.421 46.7136 16.8821 45.2534 16.8821C43.7931 16.8821 42.6094 18.421 42.6094 20.3193C42.6094 22.2176 43.7931 23.7565 45.2534 23.7565Z" fill="#212121"/>
<path d="M80.4185 78.4871C79.3609 77.9583 77.5101 77.1651 75.9237 74.7855C75.1305 73.4635 75.3949 69.7619 74.0729 68.1755C73.2797 67.1179 72.2221 67.6467 71.9577 67.6467C69.5781 68.1755 64.0257 71.8771 60.3241 67.6467C59.7953 67.1179 59.0021 66.3247 57.6801 66.3247C56.3581 66.3247 55.8293 66.8535 55.3005 67.9111C54.7717 68.9687 54.7717 69.7619 54.7717 72.4059C54.7717 74.5211 54.7717 76.9007 54.5073 78.7515C53.9785 83.2463 53.1853 85.8903 53.1853 88.5343C53.1853 91.4427 53.9785 93.2935 55.0361 94.0867C55.8293 94.8799 57.1513 95.4087 60.0597 95.4087C62.9681 95.4087 64.8189 94.3511 66.6697 92.5003C67.9917 91.1783 69.0493 90.6495 72.7509 88.0055C75.6593 86.1547 80.1541 83.7751 80.9473 82.9819C81.4761 82.4531 82.2693 82.1887 82.2693 80.6023C82.2693 79.2803 81.2117 78.7515 80.4185 78.4871V78.4871Z" fill="#FFC107"/>
<path d="M27.2741 79.2803C24.6301 75.0499 24.3657 74.2567 22.5149 71.6127C20.9285 68.9687 17.4913 63.9451 15.3761 63.9451C13.7897 63.9451 12.9965 64.7383 11.9389 65.7959C10.8813 66.8535 9.8237 69.2331 7.9729 70.5551C6.3865 71.8771 1.8917 71.6127 0.834102 73.1991C-0.223498 74.7855 1.8917 77.1651 1.8917 81.1311C1.8917 82.7175 0.569703 83.7751 0.305303 84.8327C0.0409028 86.1547 -0.223497 86.9479 0.305303 88.0055C1.3629 89.5919 2.6849 90.1207 11.6745 91.9715C16.4337 93.0291 20.9285 95.6731 23.8369 95.9375C26.7453 96.2019 31.7689 95.9375 31.7689 88.7987C32.0333 84.5683 29.6537 83.5107 27.2741 79.2803Z" fill="#FFC107"/>
<path d="M32.2978 31.4239C30.7114 30.3663 29.3894 29.3087 29.3894 27.7223C29.3894 26.1359 30.447 25.6071 32.0334 24.2851C32.2978 24.0207 35.2062 21.3767 38.1146 21.3767C41.023 21.3767 44.4602 23.2275 45.7822 23.7563C48.1618 24.2851 50.5414 24.8139 50.277 26.6647C50.0126 29.3087 49.7482 29.8375 47.1042 31.1595C45.2534 31.6883 41.8162 34.5967 39.4366 34.5967C38.379 34.5967 36.7926 34.5967 35.735 34.3323C34.9418 34.0679 33.6198 32.7459 32.2978 31.4239V31.4239Z" fill="#FFC107"/>
<path d="M31.7688 29.3087C32.2976 29.8375 33.0908 30.3663 33.884 30.6307C34.4128 30.8951 35.206 31.1595 35.206 31.1595H37.5856C38.9076 31.1595 40.7584 30.6307 42.6092 29.5731C44.46 28.7799 44.7244 28.2511 46.0464 27.7223C47.3684 26.9291 48.6904 26.1359 48.1616 25.8715C47.6328 25.6071 47.104 25.8715 45.2532 26.9291C43.6668 27.9867 42.3448 28.5155 40.7584 29.3087C39.9652 29.5731 38.9076 30.1019 38.1144 30.1019C37.3212 30.1019 36.528 30.1019 35.7348 30.1019C34.9416 30.1019 34.4128 29.8375 33.6196 29.5731C33.0908 29.3087 32.8264 29.0443 32.562 29.0443C32.0332 28.7799 30.9756 27.7223 30.4468 27.4579C30.4468 27.4579 29.918 27.4579 30.1824 27.7223C30.9756 28.5155 31.24 28.7799 31.7688 29.3087Z" fill="#634703"/>
<path d="M39.7009 23.492C39.9653 24.0208 40.4941 24.0208 40.7585 24.2852C41.0229 24.5496 41.2873 24.5496 41.2873 24.5496C41.5517 24.2852 41.2873 23.7564 41.0229 23.7564C41.0229 23.2276 39.7009 23.2276 39.7009 23.492V23.492Z" fill="#634703"/>
<path d="M35.4707 24.0205C35.4707 24.2849 35.9995 24.5493 35.9995 24.2849C36.2639 24.0205 36.5283 23.7561 36.7927 23.7561C37.3215 23.4917 37.0571 23.2273 36.2639 23.2273C35.7351 23.4917 35.7351 23.7561 35.4707 24.0205V24.0205Z" fill="#634703"/>
<path d="M61.1172 70.8194V71.6126C61.646 72.6702 62.968 72.9346 64.0256 72.9346C65.612 72.9346 67.1984 71.877 67.9916 70.8194C67.9916 70.555 68.256 70.2906 68.5204 70.0262C69.0492 69.233 69.3136 68.7042 69.578 68.4398C69.578 68.4398 69.3136 68.1754 69.3136 67.911C69.0492 67.3822 68.256 66.8534 67.1984 66.589C66.4052 66.3246 65.0832 66.0602 64.5544 66.0602C62.1748 65.7958 60.8528 66.589 60.0596 67.3822C60.0596 67.3822 60.324 67.3822 60.324 67.6466C60.8528 68.1754 61.1172 68.7042 61.1172 69.4974C61.3816 70.0262 61.1172 70.2906 61.1172 70.8194V70.8194Z" fill="#455A64"/>
</svg>
