<svg width="96" height="96" viewBox="0 0 96 96" fill="none" xmlns="http://www.w3.org/2000/svg">
<g clip-path="url(#clip0_29_21)">
<path d="M47.5937 0.0270996C23.2816 0.0271013 24.7998 10.6116 24.7998 10.6116L24.8269 21.5771H48.0273V24.8695H15.6118C15.6118 24.8695 0.0544434 23.0982 0.0544434 47.7256C0.0544416 72.3529 13.6332 71.4796 13.6332 71.4796H21.7371V60.0515C21.7371 60.0515 21.3003 46.4195 35.0991 46.4195H58.1098C58.1098 46.4195 71.0381 46.6293 71.0381 33.8759V12.7884C71.0381 12.7884 73.0009 0.0270996 47.5937 0.0270996V0.0270996ZM34.8009 7.40091C37.1092 7.4009 38.9748 9.27386 38.9748 11.5912C38.9748 13.9085 37.1092 15.7815 34.8009 15.7815C32.4926 15.7815 30.627 13.9085 30.627 11.5912C30.627 9.27386 32.4926 7.40091 34.8009 7.40091Z" fill="url(#paint0_linear_29_21)"/>
<path d="M48.284 95.6711C72.5961 95.6711 71.0779 85.0866 71.0779 85.0866L71.0508 74.1211H47.8503V70.8288H80.2659C80.2659 70.8288 95.8232 72.6 95.8232 47.9727C95.8232 23.3453 82.2445 24.2187 82.2445 24.2187H74.1406V35.6467C74.1406 35.6467 74.5774 49.2787 60.7786 49.2787H37.7679C37.7679 49.2787 24.8396 49.0689 24.8396 61.8224V82.9098C24.8396 82.9098 22.8767 95.6711 48.284 95.6711V95.6711ZM61.0768 88.2973C58.7685 88.2973 56.9028 86.4244 56.9028 84.1071C56.9028 81.7897 58.7685 79.9168 61.0768 79.9168C63.385 79.9168 65.2507 81.7897 65.2507 84.1071C65.2507 86.4244 63.385 88.2973 61.0768 88.2973Z" fill="url(#paint1_linear_29_21)"/>
</g>
<defs>
<linearGradient id="paint0_linear_29_21" x1="9.25802" y1="8.63" x2="56.9015" y2="55.6139" gradientUnits="userSpaceOnUse">
<stop stop-color="#387EB8"/>
<stop offset="1" stop-color="#366994"/>
</linearGradient>
<linearGradient id="paint1_linear_29_21" x1="38.3886" y1="38.92" x2="89.5434" y2="87.0892" gradientUnits="userSpaceOnUse">
<stop stop-color="#FFE052"/>
<stop offset="1" stop-color="#FFC331"/>
</linearGradient>
<clipPath id="clip0_29_21">
<rect width="96" height="96" fill="white"/>
</clipPath>
</defs>
</svg>
