<svg width="108" height="96" viewBox="0 0 108 96" fill="none" xmlns="http://www.w3.org/2000/svg">
<path d="M88.6246 31.0836C87.5064 30.6988 86.3477 30.3346 85.1547 29.9902C85.3508 29.1899 85.5308 28.4 85.6908 27.6236C88.3174 14.8736 86.6 4.60221 80.7357 1.22042C75.1126 -2.02227 65.9164 1.35875 56.6286 9.44159C55.7355 10.2188 54.8399 11.0417 53.9446 11.9042C53.3481 11.3336 52.7526 10.7821 52.1586 10.2547C42.4247 1.61201 32.6681 -2.03014 26.8095 1.36144C21.1917 4.61353 19.5281 14.2697 21.8924 26.3528C22.1207 27.52 22.3876 28.7118 22.6894 29.9236C21.3086 30.3156 19.9755 30.7335 18.7 31.178C7.28814 35.1567 0 41.3923 0 47.8602C0 54.5403 7.82382 61.2406 19.7102 65.3033C20.6482 65.6239 21.6215 65.9271 22.6246 66.2149C22.299 67.5255 22.0158 68.8098 21.7781 70.0625C19.5237 81.936 21.2842 91.364 26.887 94.5956C32.6742 97.9328 42.3867 94.5025 51.8443 86.2355C52.5918 85.582 53.342 84.889 54.0935 84.1626C55.0676 85.1006 56.0402 85.9883 57.0075 86.821C66.1683 94.7041 75.216 97.8874 80.8136 94.6468C86.595 91.2999 88.474 81.172 86.0346 68.8497C85.8483 67.9086 85.6315 66.9472 85.388 65.9687C86.0701 65.7671 86.7397 65.5589 87.3926 65.3425C99.7496 61.2483 107.789 54.6295 107.789 47.8602C107.789 41.3689 100.266 35.0913 88.6246 31.0836ZM85.9444 60.9716C85.355 61.1667 84.7503 61.3553 84.134 61.5382C82.7699 57.2195 80.9287 52.6273 78.6757 47.8827C80.8257 43.2511 82.5956 38.7175 83.9216 34.4269C85.0243 34.7459 86.0945 35.0825 87.1257 35.4376C97.1004 38.8714 103.185 43.9483 103.185 47.8602C103.185 52.0271 96.6138 57.4363 85.9444 60.9716ZM81.5174 69.744C82.596 75.1927 82.7501 80.119 82.0356 83.9701C81.3936 87.4306 80.1026 89.7377 78.5063 90.6618C75.1093 92.628 67.845 90.0722 60.0106 83.3305C59.1125 82.5576 58.2078 81.7324 57.3003 80.8591C60.3375 77.5373 63.373 73.6757 66.3356 69.3869C71.5464 68.9246 76.4694 68.1686 80.9339 67.1366C81.1538 68.0236 81.3491 68.8935 81.5174 69.744ZM36.7479 90.322C33.429 91.4941 30.7857 91.5276 29.1879 90.6063C25.7878 88.6453 24.3744 81.0755 26.3024 70.9213C26.5233 69.7584 26.7861 68.5639 27.0891 67.3428C31.5046 68.3192 36.3916 69.0218 41.6149 69.4453C44.5974 73.6419 47.7206 77.4993 50.8679 80.8769C50.1803 81.5407 49.4953 82.1727 48.8142 82.7683C44.6321 86.4239 40.4412 89.0175 36.7479 90.322ZM21.1994 60.9461C15.9435 59.1497 11.603 56.8149 8.62773 54.2671C5.9543 51.9776 4.60454 49.7046 4.60454 47.8602C4.60454 43.9352 10.4562 38.9289 20.2157 35.5262C21.3999 35.1133 22.6395 34.7243 23.926 34.3588C25.2748 38.7463 27.0442 43.3336 29.1794 47.9723C27.0165 52.6798 25.222 57.3402 23.86 61.7792C22.9429 61.5155 22.0544 61.2381 21.1994 60.9461ZM26.4114 25.4686C24.3857 15.116 25.731 7.30634 29.1165 5.34664C32.7226 3.25897 40.6966 6.23555 49.101 13.6981C49.6382 14.1751 50.1776 14.6743 50.7184 15.1908C47.5866 18.5536 44.4921 22.382 41.536 26.5539C36.4666 27.0238 31.614 27.7786 27.1524 28.7893C26.8719 27.661 26.6234 26.5524 26.4114 25.4686ZM72.9069 36.9495C71.8403 35.1072 70.7454 33.3085 69.6291 31.5589C73.0683 31.9936 76.3633 32.5708 79.4577 33.277C78.5287 36.2544 77.3708 39.3674 76.0078 42.5586C75.0301 40.7023 73.9959 38.8307 72.9069 36.9495ZM53.9462 18.4816C56.0701 20.7827 58.1971 23.3517 60.2892 26.1391C58.181 26.0395 56.0467 25.9877 53.8947 25.9877C51.7631 25.9877 49.6446 26.0384 47.5494 26.1362C49.6436 23.3747 51.789 20.8091 53.9462 18.4816ZM34.864 36.9813C33.7985 38.8288 32.7836 40.6903 31.8212 42.5552C30.4803 39.375 29.3331 36.2478 28.396 33.2283C31.4714 32.5401 34.7509 31.9773 38.1682 31.5508C37.0362 33.3165 35.9323 35.1285 34.864 36.981V36.9813ZM38.2667 64.4981C34.736 64.1042 31.4071 63.5704 28.3325 62.9012C29.2846 59.8277 30.457 56.6338 31.8264 53.3851C32.7913 55.2487 33.8102 57.1109 34.8822 58.9624H34.8824C35.9743 60.8486 37.1055 62.6963 38.2667 64.4981ZM54.0736 77.5634C51.8911 75.2087 49.7142 72.6039 47.5882 69.8021C49.6521 69.8831 51.7562 69.9245 53.8947 69.9245C56.0918 69.9245 58.2637 69.875 60.4014 69.7799C58.3024 72.6321 56.1831 75.2409 54.0736 77.5634ZM76.0517 53.2195C77.4925 56.5033 78.707 59.6806 79.6713 62.7016C76.546 63.4146 73.1717 63.9889 69.6164 64.4156C70.7354 62.6424 71.84 60.8127 72.9253 58.9307C74.0234 57.0267 75.0659 55.1198 76.0517 53.2195ZM68.9367 56.6303C67.2517 59.5518 65.5219 62.3407 63.7657 64.9733C60.5672 65.202 57.2627 65.3198 53.8947 65.3198C50.5404 65.3198 47.2775 65.2156 44.1356 65.0117C42.3087 62.3446 40.5412 59.5474 38.867 56.6554H38.8674C37.1976 53.7713 35.6608 50.8629 34.2682 47.9707C35.6604 45.0719 37.1932 42.1601 38.8534 39.2812L38.853 39.2818C40.5176 36.3952 42.2695 33.6116 44.0796 30.9612C47.2852 30.7189 50.5724 30.5925 53.8945 30.5925H53.8947C57.2318 30.5925 60.5233 30.7199 63.728 30.9643C65.5104 33.5953 67.2504 36.3699 68.9215 39.2568C70.6116 42.1762 72.1642 45.0686 73.5683 47.9053C72.1684 50.7907 70.6193 53.7122 68.9367 56.6303ZM78.4357 5.20965C82.0452 7.29118 83.4489 15.686 81.181 26.6942C81.0364 27.3966 80.8735 28.1121 80.6966 28.8371C76.2246 27.8053 71.3685 27.0374 66.2843 26.5604C63.3225 22.3427 60.2533 18.5083 57.1725 15.1887C58.0008 14.3919 58.8279 13.6321 59.6516 12.9151C67.6094 5.98977 75.047 3.25552 78.4357 5.20965ZM53.8947 38.235C59.2105 38.235 63.52 42.5442 63.52 47.8602C63.52 53.176 59.2105 57.4854 53.8947 57.4854C48.579 57.4854 44.2695 53.176 44.2695 47.8602C44.2695 42.5442 48.579 38.235 53.8947 38.235Z" fill="#00D8FF"/>
</svg>
