<svg width="160" height="96" viewBox="0 0 160 96" fill="none" xmlns="http://www.w3.org/2000/svg">
<path d="M80 0C58.6667 0 45.3333 10.6667 40 32C48 21.3333 57.3333 17.3333 68 20C74.0859 21.5215 78.4359 25.9366 83.2507 30.824C91.0942 38.7855 100.172 48 120 48C141.333 48 154.667 37.3333 160 16C152 26.6667 142.667 30.6667 132 28C125.914 26.4785 121.564 22.0634 116.749 17.176C108.906 9.21452 99.8279 0 80 0V0ZM40 48C18.6667 48 5.33333 58.6667 0 80C8 69.3333 17.3333 65.3333 28 68C34.0859 69.5215 38.4359 73.9366 43.2507 78.824C51.0942 86.7855 60.1721 96 80 96C101.333 96 114.667 85.3333 120 64C112 74.6667 102.667 78.6667 92 76C85.9141 74.4785 81.5641 70.0634 76.7493 65.176C68.9058 57.2145 59.8279 48 40 48Z" fill="url(#paint0_linear_23_77)"/>
<defs>
<linearGradient id="paint0_linear_23_77" x1="-4.44444" y1="30.72" x2="133.742" y2="110.395" gradientUnits="userSpaceOnUse">
<stop stop-color="#2298BD"/>
<stop offset="1" stop-color="#0ED7B5"/>
</linearGradient>
</defs>
</svg>
