<svg width="25" height="20" viewBox="0 0 25 20" fill="none" xmlns="http://www.w3.org/2000/svg">
<path d="M24.4431 2.38293C23.5423 2.7797 22.5781 3.05267 21.5617 3.17647C22.5987 2.55133 23.3916 1.56248 23.7696 0.384468C22.7969 0.953479 21.7209 1.36563 20.5768 1.59862C19.6645 0.617455 18.3605 0 16.9133 0C14.139 0 11.8906 2.25836 11.8906 5.04191C11.8906 5.44252 11.9388 5.82699 12.0222 6.19146C7.84898 5.99539 4.14949 3.98078 1.67526 0.937332C1.24056 1.67859 0.993367 2.53979 0.993367 3.47712C0.993367 5.23106 1.88189 6.76894 3.225 7.6732C2.40383 7.64937 1.63087 7.42099 0.953571 7.04498V7.10573C0.953571 9.55171 2.68316 11.5909 4.97908 12.0554C4.56046 12.1669 4.11352 12.2314 3.65969 12.2314C3.3375 12.2314 3.02985 12.1999 2.72296 12.143C3.36888 14.1453 5.21786 15.6032 7.42194 15.6471C5.70842 16.9965 3.53648 17.8008 1.19617 17.8008C0.797449 17.8008 0.39949 17.7816 0 17.7332C2.2324 19.1634 4.86735 20 7.71352 20C16.9485 20 21.9949 12.3145 21.9949 5.65859C21.9949 5.44637 21.9949 5.2303 21.9788 5.01346C22.9638 4.30834 23.8163 3.41484 24.4898 2.40215L24.4431 2.38293Z" fill="#18181B"/>
</svg>
